<svg xmlns="http://www.w3.org/2000/svg" width="930" height="344" viewBox="0 0 930 344"><rect width="100%" height="100%" fill="#FAFAFA" /><line x1="35" y1="61" x2="35" y2="151" stroke="#4A8C6F" stroke-width="3.8" stroke-opacity="0.5875" /><line x1="35" y1="61" x2="145" y2="56" stroke="#4A6F8C" stroke-width="3.3" stroke-opacity="0.53125" /><line x1="35" y1="151" x2="35" y2="241" stroke="#4A8C6F" stroke-width="2.8" stroke-opacity="0.475" /><line x1="145" y1="56" x2="255" y2="46" stroke="#D4A843" stroke-width="4.3" stroke-opacity="0.64375" /><line x1="145" y1="56" x2="255" y2="116" stroke="#7B5EA7" stroke-width="3.3" stroke-opacity="0.53125" /><line x1="145" y1="56" x2="35" y2="151" stroke="#4A8C6F" stroke-width="3.8" stroke-opacity="0.5875" /><line x1="145" y1="56" x2="255" y2="196" stroke="#7B5EA7" stroke-width="3.8" stroke-opacity="0.5875" /><line x1="255" y1="46" x2="35" y2="61" stroke="#4A8C6F" stroke-width="2.8" stroke-opacity="0.475" /><line x1="255" y1="116" x2="255" y2="276" stroke="#7B5EA7" stroke-width="1.8" stroke-opacity="0.3625" /><line x1="255" y1="196" x2="255" y2="276" stroke="#7B5EA7" stroke-width="2.8" stroke-opacity="0.475" /><line x1="255" y1="196" x2="35" y2="241" stroke="#4A8C6F" stroke-width="2.3" stroke-opacity="0.41875" /><line x1="35" y1="61" x2="145" y2="136" stroke="#CCCCCC" stroke-width="0.5" stroke-opacity="0.3" stroke-dasharray="3,4" /><line x1="145" y1="136" x2="255" y2="46" stroke="#CCCCCC" stroke-width="0.5" stroke-opacity="0.3" stroke-dasharray="3,4" /><line x1="145" y1="136" x2="255" y2="116" stroke="#CCCCCC" stroke-width="0.5" stroke-opacity="0.3" stroke-dasharray="3,4" /><line x1="145" y1="136" x2="35" y2="151" stroke="#CCCCCC" stroke-width="0.5" stroke-opacity="0.3" stroke-dasharray="3,4" /><line x1="145" y1="136" x2="255" y2="196" stroke="#CCCCCC" stroke-width="0.5" stroke-opacity="0.3" stroke-dasharray="3,4" /><line x1="35" y1="61" x2="145" y2="226" stroke="#CCCCCC" stroke-width="0.5" stroke-opacity="0.3" stroke-dasharray="3,4" /><line x1="145" y1="226" x2="255" y2="46" stroke="#CCCCCC" stroke-width="0.5" stroke-opacity="0.3" stroke-dasharray="3,4" /><line x1="145" y1="226" x2="35" y2="151" stroke="#CCCCCC" stroke-width="0.5" stroke-opacity="0.3" stroke-dasharray="3,4" /><line x1="145" y1="226" x2="255" y2="196" stroke="#CCCCCC" stroke-width="0.5" stroke-opacity="0.3" stroke-dasharray="3,4" /><line x1="35" y1="241" x2="145" y2="226" stroke="#CCCCCC" stroke-width="0.5" stroke-opacity="0.3" stroke-dasharray="3,4" /><circle cx="35" cy="61" r="13" fill="#D0E8D6" stroke="#4A8C6F" stroke-width="1.2" /><text x="35" y="85" text-anchor="middle" font-family="sans-serif" font-size="9" fill="#222">FUTON stack</text><circle cx="35" cy="151" r="13" fill="#D0E8D6" stroke="#4A8C6F" stroke-width="1.2" /><text x="35" y="175" text-anchor="middle" font-family="sans-serif" font-size="9" fill="#222">Validation</text><circle cx="35" cy="241" r="13" fill="#D0E8D6" stroke="#4A8C6F" stroke-width="1.2" /><text x="35" y="265" text-anchor="middle" font-family="sans-serif" font-size="9" fill="#222">Optionality</text><circle cx="145" cy="56" r="13" fill="#D0DDE8" stroke="#4A6F8C" stroke-width="1.2" /><text x="145" y="80" text-anchor="middle" font-family="sans-serif" font-size="9" fill="#222">VSAT</text><circle cx="145" cy="136" r="13" fill="#D0DDE8" stroke="#4A6F8C" stroke-width="1.2" /><text x="145" y="160" text-anchor="middle" font-family="sans-serif" font-size="9" fill="#222">UKRNS</text><circle cx="145" cy="226" r="13" fill="#D0DDE8" stroke="#4A6F8C" stroke-width="1.2" /><text x="145" y="250" text-anchor="middle" font-family="sans-serif" font-size="9" fill="#222">Other</text><circle cx="255" cy="46" r="13" fill="#F2E5C4" stroke="#D4A843" stroke-width="1.2" /><text x="255" y="70" text-anchor="middle" font-family="sans-serif" font-size="9" fill="#222">Revenue</text><circle cx="255" cy="116" r="13" fill="#E0D6E8" stroke="#7B5EA7" stroke-width="1.2" /><text x="255" y="140" text-anchor="middle" font-family="sans-serif" font-size="9" fill="#222">Client cap.</text><circle cx="255" cy="196" r="13" fill="#E0D6E8" stroke="#7B5EA7" stroke-width="1.2" /><text x="255" y="220" text-anchor="middle" font-family="sans-serif" font-size="9" fill="#222">Published</text><circle cx="255" cy="276" r="13" fill="#E0D6E8" stroke="#7B5EA7" stroke-width="1.2" /><text x="255" y="300" text-anchor="middle" font-family="sans-serif" font-size="9" fill="#222">Ecosystem</text><circle cx="70.0" cy="310" r="5" fill="#4C78A8" stroke="#222" stroke-width="0.8" /><text x="145" y="314" text-anchor="middle" font-family="sans-serif" font-size="11" fill="#222">Current state (Q1 2026)</text><line x1="340" y1="61" x2="340" y2="151" stroke="#4A8C6F" stroke-width="4.3" stroke-opacity="0.64375" /><line x1="340" y1="61" x2="450" y2="56" stroke="#4A6F8C" stroke-width="3.3" stroke-opacity="0.53125" /><line x1="340" y1="151" x2="340" y2="241" stroke="#4A8C6F" stroke-width="3.8" stroke-opacity="0.5875" /><line x1="450" y1="56" x2="560" y2="46" stroke="#D4A843" stroke-width="3.3" stroke-opacity="0.53125" /><line x1="450" y1="56" x2="560" y2="116" stroke="#7B5EA7" stroke-width="3.8" stroke-opacity="0.5875" /><line x1="450" y1="56" x2="340" y2="151" stroke="#4A8C6F" stroke-width="3.3" stroke-opacity="0.53125" /><line x1="450" y1="56" x2="560" y2="196" stroke="#7B5EA7" stroke-width="3.3" stroke-opacity="0.53125" /><line x1="560" y1="46" x2="340" y2="61" stroke="#4A8C6F" stroke-width="3.3" stroke-opacity="0.53125" /><line x1="560" y1="116" x2="560" y2="276" stroke="#7B5EA7" stroke-width="2.8" stroke-opacity="0.475" /><line x1="560" y1="196" x2="560" y2="276" stroke="#7B5EA7" stroke-width="3.3" stroke-opacity="0.53125" /><line x1="560" y1="196" x2="340" y2="241" stroke="#4A8C6F" stroke-width="3.3" stroke-opacity="0.53125" /><line x1="340" y1="61" x2="450" y2="136" stroke="#4A6F8C" stroke-width="3.3" stroke-opacity="0.53125" /><line x1="450" y1="136" x2="560" y2="46" stroke="#D4A843" stroke-width="2.8" stroke-opacity="0.475" /><line x1="450" y1="136" x2="560" y2="116" stroke="#7B5EA7" stroke-width="3.3" stroke-opacity="0.53125" /><line x1="450" y1="136" x2="340" y2="151" stroke="#4A8C6F" stroke-width="3.8" stroke-opacity="0.5875" /><line x1="450" y1="136" x2="560" y2="196" stroke="#7B5EA7" stroke-width="3.8" stroke-opacity="0.5875" /><line x1="340" y1="61" x2="450" y2="226" stroke="#CCCCCC" stroke-width="0.5" stroke-opacity="0.3" stroke-dasharray="3,4" /><line x1="450" y1="226" x2="560" y2="46" stroke="#CCCCCC" stroke-width="0.5" stroke-opacity="0.3" stroke-dasharray="3,4" /><line x1="450" y1="226" x2="340" y2="151" stroke="#CCCCCC" stroke-width="0.5" stroke-opacity="0.3" stroke-dasharray="3,4" /><line x1="450" y1="226" x2="560" y2="196" stroke="#CCCCCC" stroke-width="0.5" stroke-opacity="0.3" stroke-dasharray="3,4" /><line x1="340" y1="241" x2="450" y2="226" stroke="#CCCCCC" stroke-width="0.5" stroke-opacity="0.3" stroke-dasharray="3,4" /><circle cx="340" cy="61" r="13" fill="#D0E8D6" stroke="#4A8C6F" stroke-width="1.2" /><text x="340" y="85" text-anchor="middle" font-family="sans-serif" font-size="9" fill="#222">FUTON stack</text><circle cx="340" cy="151" r="13" fill="#D0E8D6" stroke="#4A8C6F" stroke-width="1.2" /><text x="340" y="175" text-anchor="middle" font-family="sans-serif" font-size="9" fill="#222">Validation</text><circle cx="340" cy="241" r="13" fill="#D0E8D6" stroke="#4A8C6F" stroke-width="1.2" /><text x="340" y="265" text-anchor="middle" font-family="sans-serif" font-size="9" fill="#222">Optionality</text><circle cx="450" cy="56" r="13" fill="#D0DDE8" stroke="#4A6F8C" stroke-width="1.2" /><text x="450" y="80" text-anchor="middle" font-family="sans-serif" font-size="9" fill="#222">VSAT</text><circle cx="450" cy="136" r="13" fill="#D0DDE8" stroke="#4A6F8C" stroke-width="1.2" /><text x="450" y="160" text-anchor="middle" font-family="sans-serif" font-size="9" fill="#222">UKRNS</text><circle cx="450" cy="226" r="13" fill="#D0DDE8" stroke="#4A6F8C" stroke-width="1.2" /><text x="450" y="250" text-anchor="middle" font-family="sans-serif" font-size="9" fill="#222">Other</text><circle cx="560" cy="46" r="13" fill="#F2E5C4" stroke="#D4A843" stroke-width="1.2" /><text x="560" y="70" text-anchor="middle" font-family="sans-serif" font-size="9" fill="#222">Revenue</text><circle cx="560" cy="116" r="13" fill="#E0D6E8" stroke="#7B5EA7" stroke-width="1.2" /><text x="560" y="140" text-anchor="middle" font-family="sans-serif" font-size="9" fill="#222">Client cap.</text><circle cx="560" cy="196" r="13" fill="#E0D6E8" stroke="#7B5EA7" stroke-width="1.2" /><text x="560" y="220" text-anchor="middle" font-family="sans-serif" font-size="9" fill="#222">Published</text><circle cx="560" cy="276" r="13" fill="#E0D6E8" stroke="#7B5EA7" stroke-width="1.2" /><text x="560" y="300" text-anchor="middle" font-family="sans-serif" font-size="9" fill="#222">Ecosystem</text><circle cx="423.0" cy="310" r="5" fill="#F58518" stroke="#222" stroke-width="0.8" /><text x="450" y="314" text-anchor="middle" font-family="sans-serif" font-size="11" fill="#222">Phase 1</text><line x1="645" y1="61" x2="645" y2="151" stroke="#4A8C6F" stroke-width="4.3" stroke-opacity="0.64375" /><line x1="645" y1="61" x2="755" y2="56" stroke="#4A6F8C" stroke-width="2.8" stroke-opacity="0.475" /><line x1="645" y1="151" x2="645" y2="241" stroke="#4A8C6F" stroke-width="4.8" stroke-opacity="0.7" /><line x1="755" y1="56" x2="865" y2="46" stroke="#D4A843" stroke-width="2.8" stroke-opacity="0.475" /><line x1="755" y1="56" x2="865" y2="116" stroke="#7B5EA7" stroke-width="4.3" stroke-opacity="0.64375" /><line x1="755" y1="56" x2="645" y2="151" stroke="#4A8C6F" stroke-width="2.8" stroke-opacity="0.475" /><line x1="755" y1="56" x2="865" y2="196" stroke="#7B5EA7" stroke-width="2.8" stroke-opacity="0.475" /><line x1="865" y1="46" x2="645" y2="61" stroke="#4A8C6F" stroke-width="3.8" stroke-opacity="0.5875" /><line x1="865" y1="116" x2="865" y2="276" stroke="#7B5EA7" stroke-width="3.8" stroke-opacity="0.5875" /><line x1="865" y1="196" x2="865" y2="276" stroke="#7B5EA7" stroke-width="3.8" stroke-opacity="0.5875" /><line x1="865" y1="196" x2="645" y2="241" stroke="#4A8C6F" stroke-width="3.8" stroke-opacity="0.5875" /><line x1="645" y1="61" x2="755" y2="136" stroke="#4A6F8C" stroke-width="3.3" stroke-opacity="0.53125" /><line x1="755" y1="136" x2="865" y2="46" stroke="#D4A843" stroke-width="3.3" stroke-opacity="0.53125" /><line x1="755" y1="136" x2="865" y2="116" stroke="#7B5EA7" stroke-width="3.8" stroke-opacity="0.5875" /><line x1="755" y1="136" x2="645" y2="151" stroke="#4A8C6F" stroke-width="3.3" stroke-opacity="0.53125" /><line x1="755" y1="136" x2="865" y2="196" stroke="#7B5EA7" stroke-width="4.3" stroke-opacity="0.64375" /><line x1="645" y1="61" x2="755" y2="226" stroke="#4A6F8C" stroke-width="3.3" stroke-opacity="0.53125" /><line x1="755" y1="226" x2="865" y2="46" stroke="#D4A843" stroke-width="3.3" stroke-opacity="0.53125" /><line x1="755" y1="226" x2="645" y2="151" stroke="#4A8C6F" stroke-width="3.8" stroke-opacity="0.5875" /><line x1="755" y1="226" x2="865" y2="196" stroke="#7B5EA7" stroke-width="2.8" stroke-opacity="0.475" /><line x1="645" y1="241" x2="755" y2="226" stroke="#4A6F8C" stroke-width="3.3" stroke-opacity="0.53125" /><circle cx="645" cy="61" r="13" fill="#D0E8D6" stroke="#4A8C6F" stroke-width="1.2" /><text x="645" y="85" text-anchor="middle" font-family="sans-serif" font-size="9" fill="#222">FUTON stack</text><circle cx="645" cy="151" r="13" fill="#D0E8D6" stroke="#4A8C6F" stroke-width="1.2" /><text x="645" y="175" text-anchor="middle" font-family="sans-serif" font-size="9" fill="#222">Validation</text><circle cx="645" cy="241" r="13" fill="#D0E8D6" stroke="#4A8C6F" stroke-width="1.2" /><text x="645" y="265" text-anchor="middle" font-family="sans-serif" font-size="9" fill="#222">Optionality</text><circle cx="755" cy="56" r="13" fill="#D0DDE8" stroke="#4A6F8C" stroke-width="1.2" /><text x="755" y="80" text-anchor="middle" font-family="sans-serif" font-size="9" fill="#222">VSAT</text><circle cx="755" cy="136" r="13" fill="#D0DDE8" stroke="#4A6F8C" stroke-width="1.2" /><text x="755" y="160" text-anchor="middle" font-family="sans-serif" font-size="9" fill="#222">UKRNS</text><circle cx="755" cy="226" r="13" fill="#D0DDE8" stroke="#4A6F8C" stroke-width="1.2" /><text x="755" y="250" text-anchor="middle" font-family="sans-serif" font-size="9" fill="#222">Other</text><circle cx="865" cy="46" r="13" fill="#F2E5C4" stroke="#D4A843" stroke-width="1.2" /><text x="865" y="70" text-anchor="middle" font-family="sans-serif" font-size="9" fill="#222">Revenue</text><circle cx="865" cy="116" r="13" fill="#E0D6E8" stroke="#7B5EA7" stroke-width="1.2" /><text x="865" y="140" text-anchor="middle" font-family="sans-serif" font-size="9" fill="#222">Client cap.</text><circle cx="865" cy="196" r="13" fill="#E0D6E8" stroke="#7B5EA7" stroke-width="1.2" /><text x="865" y="220" text-anchor="middle" font-family="sans-serif" font-size="9" fill="#222">Published</text><circle cx="865" cy="276" r="13" fill="#E0D6E8" stroke="#7B5EA7" stroke-width="1.2" /><text x="865" y="300" text-anchor="middle" font-family="sans-serif" font-size="9" fill="#222">Ecosystem</text><circle cx="728.0" cy="310" r="5" fill="#E45756" stroke="#222" stroke-width="0.8" /><text x="755" y="314" text-anchor="middle" font-family="sans-serif" font-size="11" fill="#222">Phase 2</text><rect x="20" y="323" width="12" height="12" fill="#4A8C6F" fill-opacity="0.6" stroke="#4A8C6F" /><text x="38" y="332" font-family="sans-serif" font-size="10" fill="#444">Capability growth</text><rect x="240" y="323" width="12" height="12" fill="#4A6F8C" fill-opacity="0.6" stroke="#4A6F8C" /><text x="258" y="332" font-family="sans-serif" font-size="10" fill="#444">Alignment zone</text><rect x="460" y="323" width="12" height="12" fill="#D4A843" fill-opacity="0.6" stroke="#D4A843" /><text x="478" y="332" font-family="sans-serif" font-size="10" fill="#444">Revenue (catalyst)</text><rect x="680" y="323" width="12" height="12" fill="#7B5EA7" fill-opacity="0.6" stroke="#7B5EA7" /><text x="698" y="332" font-family="sans-serif" font-size="10" fill="#444">Downstream benefit</text></svg>